<?xml version="1.0" encoding="utf-8"?>
<!-- Generator: Adobe Illustrator 15.1.0, SVG Export Plug-In . SVG Version: 6.00 Build 0)  -->
<!DOCTYPE svg PUBLIC "-//W3C//DTD SVG 1.1//EN" "http://www.w3.org/Graphics/SVG/1.1/DTD/svg11.dtd">
<svg version="1.1" id="Layer_1" xmlns="http://www.w3.org/2000/svg" xmlns:xlink="http://www.w3.org/1999/xlink" x="0px" y="0px"
	 width="320px" height="38px" viewBox="0 0 320 38" enable-background="new 0 0 320 38" xml:space="preserve">
<g>
	<g>
		<polygon fill="#FFFFFF" points="307,36 318.5,19 318.5,18 307,1 13,1 1.5,18 1.5,19 13,36 		"/>
		<path fill="#261E35" d="M307.796,37.5H12.204L0,19.459v-1.919L12.204-0.5h295.592L320,17.541v1.919L307.796,37.5z M13.796,34.5
			h292.408L317,18.459L306.204,2.5H13.796L3,18.541L13.796,34.5z"/>
	</g>
	<g>
		<path fill="#261E35" d="M38.149,20.426V23.9c0,1.524-1.225,2.749-2.749,2.749h-5.724c-1.525,0-2.75-1.225-2.75-2.749V12.753
			c0-1.525,1.225-2.75,2.75-2.75H35.4c1.524,0,2.749,1.225,2.749,2.75v3.099H34.6v-2.299c0-0.15-0.1-0.25-0.25-0.25h-3.549
			c-0.15,0-0.25,0.1-0.25,0.25V23.1c0,0.15,0.1,0.25,0.25,0.25h3.549c0.15,0,0.25-0.1,0.25-0.25v-2.674H38.149z"/>
		<path fill="#261E35" d="M54.548,26.649h-3.699l-1.05-3.3h-5.124l-1,3.3h-3.699l5.449-16.646h3.649L54.548,26.649z M45.75,20.15
			h2.999l-1.5-5.548L45.75,20.15z"/>
		<path fill="#261E35" d="M67.574,23.9c0,1.524-1.225,2.749-2.749,2.749h-5.649c-1.524,0-2.749-1.225-2.749-2.749v-2.225h3.549V23.1
			c0,0.15,0.1,0.25,0.25,0.25h3.499c0.15,0,0.25-0.1,0.25-0.25v-2.324c0-0.174-0.125-0.274-0.325-0.324
			c-0.425-0.125-1.75-0.5-4.849-1.375c-1.475-0.425-2.324-1.075-2.324-2.599v-3.724c0-1.525,1.225-2.75,2.75-2.75h5.499
			c1.524,0,2.749,1.225,2.749,2.75v2.199h-3.549v-1.399c0-0.15-0.1-0.25-0.25-0.25h-3.349c-0.15,0-0.25,0.1-0.25,0.25v2.149
			c0,0.2,0.125,0.275,0.275,0.325c0.25,0.075,1.675,0.475,4.974,1.4c1.425,0.4,2.25,1.075,2.25,2.599V23.9z"/>
		<path fill="#261E35" d="M81.999,10.003V23.9c0,1.524-1.225,2.749-2.75,2.749h-5.923c-1.525,0-2.75-1.225-2.75-2.749V10.003H74.2
			V23.1c0,0.15,0.1,0.25,0.25,0.25h3.674c0.15,0,0.25-0.1,0.25-0.25V10.003H81.999z"/>
		<path fill="#261E35" d="M97.898,26.649h-3.699l-1.05-3.3h-5.124l-1,3.3h-3.699l5.449-16.646h3.649L97.898,26.649z M89.1,20.15
			h2.999l-1.5-5.548L89.1,20.15z"/>
		<path fill="#261E35" d="M100.101,10.003h3.624V23.35h6.624v3.3h-10.248V10.003z"/>
		<path fill="#261E35" d="M129.147,23.9c0,1.524-1.225,2.749-2.749,2.749h-5.649c-1.524,0-2.749-1.225-2.749-2.749v-2.225h3.549
			V23.1c0,0.15,0.1,0.25,0.25,0.25h3.499c0.15,0,0.25-0.1,0.25-0.25v-2.324c0-0.174-0.125-0.274-0.325-0.324
			c-0.425-0.125-1.75-0.5-4.849-1.375c-1.475-0.425-2.324-1.075-2.324-2.599v-3.724c0-1.525,1.225-2.75,2.75-2.75h5.499
			c1.524,0,2.75,1.225,2.75,2.75v2.199h-3.549v-1.399c0-0.15-0.1-0.25-0.25-0.25h-3.349c-0.15,0-0.25,0.1-0.25,0.25v2.149
			c0,0.2,0.125,0.275,0.275,0.325c0.25,0.075,1.675,0.475,4.974,1.4c1.425,0.4,2.25,1.075,2.25,2.599V23.9z"/>
		<path fill="#261E35" d="M141.048,26.649h-6.148c-1.525,0-2.75-1.225-2.75-2.749V12.753c0-1.525,1.225-2.75,2.75-2.75h6.148
			c1.524,0,2.75,1.225,2.75,2.75V23.9C143.797,25.425,142.572,26.649,141.048,26.649z M139.923,13.303h-3.899
			c-0.15,0-0.25,0.1-0.25,0.25V23.1c0,0.15,0.1,0.25,0.25,0.25h3.899c0.15,0,0.25-0.1,0.25-0.25v-9.547
			C140.173,13.403,140.073,13.303,139.923,13.303z"/>
		<path fill="#261E35" d="M155.098,10.003c1.524,0,2.75,1.225,2.75,2.75v5.049c0,1.524-1.225,2.749-2.75,2.749h-5.299v6.099h-3.624
			V10.003H155.098z M149.799,13.303v3.949h4.199c0.15,0,0.25-0.1,0.25-0.25v-3.449c0-0.15-0.1-0.25-0.25-0.25H149.799z"/>
		<path fill="#261E35" d="M168.147,19.851h-4.799v6.798h-3.624V10.003h3.624v6.548h4.799v-6.548h3.624v16.646h-3.624V19.851z"/>
		<path fill="#261E35" d="M179.023,26.649h-3.624V10.003h3.624V26.649z"/>
		<path fill="#261E35" d="M193.597,23.9c0,1.524-1.225,2.749-2.749,2.749h-5.648c-1.525,0-2.75-1.225-2.75-2.749v-2.225h3.549V23.1
			c0,0.15,0.101,0.25,0.25,0.25h3.5c0.149,0,0.25-0.1,0.25-0.25v-2.324c0-0.174-0.125-0.274-0.325-0.324
			c-0.425-0.125-1.749-0.5-4.849-1.375c-1.475-0.425-2.324-1.075-2.324-2.599v-3.724c0-1.525,1.225-2.75,2.749-2.75h5.499
			c1.523,0,2.749,1.225,2.749,2.75v2.199h-3.55v-1.399c0-0.15-0.1-0.25-0.25-0.25h-3.349c-0.149,0-0.25,0.1-0.25,0.25v2.149
			c0,0.2,0.125,0.275,0.274,0.325c0.25,0.075,1.676,0.475,4.975,1.4c1.424,0.4,2.249,1.075,2.249,2.599V23.9z"/>
		<path fill="#261E35" d="M195.6,10.003h12.222v3.299h-4.299v13.347h-3.624V13.303H195.6V10.003z"/>
		<path fill="#261E35" d="M213.947,26.649h-3.623V10.003h3.623V26.649z"/>
		<path fill="#261E35" d="M228.671,20.426V23.9c0,1.524-1.225,2.749-2.749,2.749h-5.724c-1.524,0-2.749-1.225-2.749-2.749V12.753
			c0-1.525,1.225-2.75,2.749-2.75h5.724c1.524,0,2.749,1.225,2.749,2.75v3.099h-3.549v-2.299c0-0.15-0.101-0.25-0.25-0.25h-3.55
			c-0.149,0-0.25,0.1-0.25,0.25V23.1c0,0.15,0.101,0.25,0.25,0.25h3.55c0.149,0,0.25-0.1,0.25-0.25v-2.674H228.671z"/>
		<path fill="#261E35" d="M245.07,26.649h-3.699l-1.05-3.3h-5.124l-1,3.3h-3.699l5.449-16.646h3.649L245.07,26.649z M236.272,20.15
			h2.999l-1.5-5.548L236.272,20.15z"/>
		<path fill="#261E35" d="M244.023,10.003h12.222v3.299h-4.299v13.347h-3.624V13.303h-4.299V10.003z"/>
		<path fill="#261E35" d="M262.371,26.649h-3.623V10.003h3.623V26.649z"/>
		<path fill="#261E35" d="M274.771,26.649h-6.148c-1.524,0-2.749-1.225-2.749-2.749V12.753c0-1.525,1.225-2.75,2.749-2.75h6.148
			c1.524,0,2.749,1.225,2.749,2.75V23.9C277.52,25.425,276.295,26.649,274.771,26.649z M273.646,13.303h-3.899
			c-0.149,0-0.25,0.1-0.25,0.25V23.1c0,0.15,0.101,0.25,0.25,0.25h3.899c0.15,0,0.25-0.1,0.25-0.25v-9.547
			C273.896,13.403,273.796,13.303,273.646,13.303z"/>
		<path fill="#261E35" d="M291.944,26.649h-3.499l-5.549-9.698v9.698h-3.499V10.003h3.499l5.549,9.748v-9.748h3.499V26.649z"/>
	</g>
	
		<rect x="14.922" y="15.172" transform="matrix(0.7071 0.7071 -0.7071 0.7071 17.9268 -7.2791)" fill="#261E35" width="5.657" height="5.657"/>
	
		<rect x="298.922" y="15.672" transform="matrix(0.7071 0.7071 -0.7071 0.7071 101.462 -207.9509)" fill="#261E35" width="5.657" height="5.657"/>
</g>
</svg>
